# xmcd CD database file
#
# Track frame offsets:
#	150
#	12146
#	29539
#	39319
#	54223
#	65059
#	75455
#	86082
#	99549
#	125429
#	135711
#	147063
#	159905
#	170777
#	183934
#	199121
#	211872
#	225363
#
# Disc length: 3178 seconds
#
# Revision: 0
# Processed by: cddbd v1.5.1PL2 Copyright (c) Steve Scherf et al.
# Submitted via: CDex 1.51
#
DISCID=e60c6812
DTITLE=Various Artist - Rocky Top
DYEAR=1900
DGENRE=Country
TTITLE0=Rocky Top 
TTITLE1=Blue Moon Of Kentucky/Don't Let The Smokey Mountains Smoke Get In Your Eyes/Mule Skinner Blues/I'll Fly Away
TTITLE2=Ballad Of Jed Clampett
TTITLE3=Wabash Cannonball
TTITLE4=Rolling In My Sweet Baby's Arms 
TTITLE5=Fox On The Run 
TTITLE6=Uncle Pen
TTITLE7=Truck Driving Man
TTITLE8=Red River Valley/Silver Haired Daddy Of Mine/Tennessee Waltz/Amazing Grace
TTITLE9=Foggy Mountain Breakdown 
TTITLE10=Night Train To Georgia
TTITLE11=Little Margie/You Are My Sunshine/Cripple Creek/Boil Them Cabbage Down
TTITLE12=Salty Dog Blues
TTITLE13=Will The Circle Be Unbroken
TTITLE14=Orange Blossom Special
TTITLE15=Dueling Banjos
TTITLE16=Mountain Dew/Sittin' On Top Of The World/Keep On The Sunny Side/ Wildwood Flower
TTITLE17=I Wonder How The Old Folks Are At Home
EXTD=
EXTT0=
EXTT1=
EXTT2=
EXTT3=
EXTT4=
EXTT5=
EXTT6=
EXTT7=
EXTT8=
EXTT9=
EXTT10=
EXTT11=
EXTT12=
EXTT13=
EXTT14=
EXTT15=
EXTT16=
EXTT17=
PLAYORDER=
